<svg width="30" height="29" viewBox="0 0 30 29" fill="none" xmlns="http://www.w3.org/2000/svg">
<g filter="url(#filter0_d_814_4315)">
<path d="M23.9922 1.78125L16.2188 7.55469L17.6562 4.14844L23.9922 1.78125Z" fill="#E2761B" stroke="#E2761B" stroke-linecap="round" stroke-linejoin="round"/>
<path d="M6.04688 1.78125L13.7578 7.60938L12.3906 4.14844L6.04688 1.78125Z" fill="#E4761B" stroke="#E4761B" stroke-linecap="round" stroke-linejoin="round"/>
<path d="M21.1953 15.1641L19.125 18.3359L23.5547 19.5547L24.8281 15.2344L21.1953 15.1641Z" fill="#E4761B" stroke="#E4761B" stroke-linecap="round" stroke-linejoin="round"/>
<path d="M5.22656 15.2344L6.49219 19.5547L10.9219 18.3359L8.85156 15.1641L5.22656 15.2344Z" fill="#E4761B" stroke="#E4761B" stroke-linecap="round" stroke-linejoin="round"/>
<path d="M10.6719 9.80469L9.4375 11.6719L13.8359 11.8672L13.6797 7.14062L10.6719 9.80469Z" fill="#E4761B" stroke="#E4761B" stroke-linecap="round" stroke-linejoin="round"/>
<path d="M19.3672 9.80469L16.3203 7.08594L16.2188 11.8672L20.6094 11.6719L19.3672 9.80469Z" fill="#E4761B" stroke="#E4761B" stroke-linecap="round" stroke-linejoin="round"/>
<path d="M10.9219 18.3359L13.5625 17.0469L11.2812 15.2656L10.9219 18.3359Z" fill="#E4761B" stroke="#E4761B" stroke-linecap="round" stroke-linejoin="round"/>
<path d="M16.4766 17.0469L19.125 18.3359L18.7578 15.2656L16.4766 17.0469Z" fill="#E4761B" stroke="#E4761B" stroke-linecap="round" stroke-linejoin="round"/>
<path d="M19.125 18.3359L16.4766 17.0469L16.6875 18.7734L16.6641 19.5L19.125 18.3359Z" fill="#D7C1B3" stroke="#D7C1B3" stroke-linecap="round" stroke-linejoin="round"/>
<path d="M10.9219 18.3359L13.3828 19.5L13.3672 18.7734L13.5625 17.0469L10.9219 18.3359Z" fill="#D7C1B3" stroke="#D7C1B3" stroke-linecap="round" stroke-linejoin="round"/>
<path d="M13.4219 14.125L11.2188 13.4766L12.7734 12.7656L13.4219 14.125Z" fill="#233447" stroke="#233447" stroke-linecap="round" stroke-linejoin="round"/>
<path d="M16.6172 14.125L17.2656 12.7656L18.8281 13.4766L16.6172 14.125Z" fill="#233447" stroke="#233447" stroke-linecap="round" stroke-linejoin="round"/>
<path d="M10.9219 18.3359L11.2969 15.1641L8.85156 15.2344L10.9219 18.3359Z" fill="#CD6116" stroke="#CD6116" stroke-linecap="round" stroke-linejoin="round"/>
<path d="M18.75 15.1641L19.125 18.3359L21.1953 15.2344L18.75 15.1641Z" fill="#CD6116" stroke="#CD6116" stroke-linecap="round" stroke-linejoin="round"/>
<path d="M20.6094 11.6719L16.2188 11.8672L16.625 14.125L17.2734 12.7656L18.8359 13.4766L20.6094 11.6719Z" fill="#CD6116" stroke="#CD6116" stroke-linecap="round" stroke-linejoin="round"/>
<path d="M11.2188 13.4766L12.7812 12.7656L13.4219 14.125L13.8359 11.8672L9.4375 11.6719L11.2188 13.4766Z" fill="#CD6116" stroke="#CD6116" stroke-linecap="round" stroke-linejoin="round"/>
<path d="M9.4375 11.6719L11.2812 15.2656L11.2188 13.4766L9.4375 11.6719Z" fill="#E4751F" stroke="#E4751F" stroke-linecap="round" stroke-linejoin="round"/>
<path d="M18.8359 13.4766L18.7578 15.2656L20.6094 11.6719L18.8359 13.4766Z" fill="#E4751F" stroke="#E4751F" stroke-linecap="round" stroke-linejoin="round"/>
<path d="M13.8359 11.8672L13.4219 14.125L13.9375 16.7891L14.0547 13.2812L13.8359 11.8672Z" fill="#E4751F" stroke="#E4751F" stroke-linecap="round" stroke-linejoin="round"/>
<path d="M16.2188 11.8672L16.0078 13.2734L16.1016 16.7891L16.625 14.125L16.2188 11.8672Z" fill="#E4751F" stroke="#E4751F" stroke-linecap="round" stroke-linejoin="round"/>
<path d="M16.625 14.125L16.1016 16.7891L16.4766 17.0469L18.7578 15.2656L18.8359 13.4766L16.625 14.125Z" fill="#F6851B" stroke="#F6851B" stroke-linecap="round" stroke-linejoin="round"/>
<path d="M11.2188 13.4766L11.2812 15.2656L13.5625 17.0469L13.9375 16.7891L13.4219 14.125L11.2188 13.4766Z" fill="#F6851B" stroke="#F6851B" stroke-linecap="round" stroke-linejoin="round"/>
<path d="M16.6641 19.5L16.6875 18.7734L16.4922 18.6016H13.5469L13.3672 18.7734L13.3828 19.5L10.9219 18.3359L11.7812 19.0391L13.5234 20.25H16.5156L18.2656 19.0391L19.125 18.3359L16.6641 19.5Z" fill="#C0AD9E" stroke="#C0AD9E" stroke-linecap="round" stroke-linejoin="round"/>
<path d="M16.4766 17.0469L16.1016 16.7891H13.9375L13.5625 17.0469L13.3672 18.7734L13.5469 18.6016H16.4922L16.6875 18.7734L16.4766 17.0469Z" fill="#161616" stroke="#161616" stroke-linecap="round" stroke-linejoin="round"/>
<path d="M24.3203 7.92969L24.9844 4.74219L23.9922 1.78125L16.4766 7.35938L19.3672 9.80469L23.4531 11L24.3594 9.94531L23.9688 9.66406L24.5938 9.09375L24.1094 8.71875L24.7344 8.24219L24.3203 7.92969Z" fill="#763D16" stroke="#763D16" stroke-linecap="round" stroke-linejoin="round"/>
<path d="M5.0625 4.74219L5.72656 7.92969L5.30469 8.24219L5.92969 8.71875L5.45312 9.09375L6.07812 9.66406L5.6875 9.94531L6.58594 11L10.6719 9.80469L13.5625 7.35938L6.04688 1.78125L5.0625 4.74219Z" fill="#763D16" stroke="#763D16" stroke-linecap="round" stroke-linejoin="round"/>
<path d="M23.4531 11L19.3672 9.80469L20.6094 11.6719L18.7578 15.2656L21.1953 15.2344H24.8281L23.4531 11Z" fill="#F6851B" stroke="#F6851B" stroke-linecap="round" stroke-linejoin="round"/>
<path d="M10.6719 9.80469L6.58594 11L5.22656 15.2344H8.85156L11.2812 15.2656L9.4375 11.6719L10.6719 9.80469Z" fill="#F6851B" stroke="#F6851B" stroke-linecap="round" stroke-linejoin="round"/>
<path d="M16.2188 11.8672L16.4766 7.35938L17.6641 4.14844H12.3906L13.5625 7.35938L13.8359 11.8672L13.9297 13.2891L13.9375 16.7891H16.1016L16.1172 13.2891L16.2188 11.8672Z" fill="#F6851B" stroke="#F6851B" stroke-linecap="round" stroke-linejoin="round"/>
</g>
<defs>
<filter id="filter0_d_814_4315" x="0" y="0" width="30" height="30" filterUnits="userSpaceOnUse" color-interpolation-filters="sRGB">
<feFlood flood-opacity="0" result="BackgroundImageFix"/>
<feColorMatrix in="SourceAlpha" type="matrix" values="0 0 0 0 0 0 0 0 0 0 0 0 0 0 0 0 0 0 127 0" result="hardAlpha"/>
<feOffset dy="4"/>
<feGaussianBlur stdDeviation="2"/>
<feComposite in2="hardAlpha" operator="out"/>
<feColorMatrix type="matrix" values="0 0 0 0 0 0 0 0 0 0 0 0 0 0 0 0 0 0 0.25 0"/>
<feBlend mode="normal" in2="BackgroundImageFix" result="effect1_dropShadow_814_4315"/>
<feBlend mode="normal" in="SourceGraphic" in2="effect1_dropShadow_814_4315" result="shape"/>
</filter>
</defs>
</svg>
